<?xml version="1.0" encoding="UTF-8"?>
<svg id="Layer_1" xmlns="http://www.w3.org/2000/svg" version="1.1" viewBox="0 0 1344 756">
  <!-- Generator: Adobe Illustrator 29.8.2, SVG Export Plug-In . SVG Version: 2.1.1 Build 3)  -->
  <defs>
    <style>
      .st0 {
        fill: #f38e23;
      }

      .st1 {
        fill: #f3a41d;
      }

      .st2 {
        fill: #0a3d6e;
      }

      .st3 {
        fill: #7b7c7c;
      }
    </style>
  </defs>
  <polygon class="st2" points="733.8 478.35 771.83 243.04 825.35 244.69 908.46 380.61 929.29 243.02 987.22 243.02 948.96 478.1 898.89 477.96 814.35 339 791.72 478.35 733.8 478.35"/>
  <path class="st2" d="M453.22,478.35l140.3-233.5,58.64-1.64,65.34,235.14h-61.55l-11.12-43.19-104.91.91-24.26,42.28h-62.45ZM567.26,387.84h65.17l-20.8-81.47-44.37,81.47Z"/>
  <path class="st3" d="M1284.31,320.61c-34.01-50.17-114.79-26.85-122.85,32.39-10.17,74.72,65.51,102.07,114.84,53.12,4.5-1.17,35.52,27.93,36.55,31.86.4,1.53.3,2.83-.65,4.12-58.92,66.04-183.58,54.01-206.8-39.41-23.88-96.08,53.73-176.27,150.13-160.99,27.38,4.34,58.64,18.82,71.96,43.91l-39.24,34.97-3.95.04Z"/>
  <polygon class="st3" points="1090.4 243.02 1054.2 478.35 996.27 478.35 1032.47 243.02 1090.4 243.02"/>
  <g>
    <path class="st1" d="M257.36,286.09l-161.64.37c-6.98-.8-14.65-2.32-10.99-10.99l116.87-8.03c2.87-4.55,9.57-12.26,8.76-17.66-1.26-8.37-15.92-29.59-18.89-39.35-1.14-2.09-.14-2.96.94-4.56,3.13-4.67,35.41-33.91,39.55-34.94,8.62-2.13,33.66,18.16,43.09,21.46l51.03-20.39c5.49-7.98,9.85-43.95,17.97-46.3,3.2-.93,15.23-1.95,19.49-2.23,6.91-.46,26.15-.98,31.86.88,10.27,3.33,13.11,37.93,20.86,46.12l50.56,19.98c10.04-2.96,34.59-22.88,43.28-21.66,3.92.55,39.64,30.34,40.61,33.9l-9.67,27.68-115.88,1.8c-60.17-22.86-134.5-2.32-167.79,53.92Z"/>
    <path class="st0" d="M327.9,552.98l-51.47-21.74c-5.89-.51-31.59,18.68-40.42,20.56-3.56.76-4.42-.3-7.14-2.05-6.36-4.11-34.91-30.65-36.05-36.54l17.7-41.2-11.97-22.29-138.3-10.14c-3.06-3.44-1.55-6.96,1.99-9.2l189.17-.94c18.39,37.75,54.57,61.16,94.91,69.82,65,5.92,130.88.77,196.22,2.9l9.4,21.38c-1.48,3.51-31.94,30.02-36.52,32.37-3.01,1.54-4.66,2.68-8.33,1.75-9.11-2.31-29.81-20.78-38.6-21.34l-50.19,16.61-20.58,46.4-53.84-1.7-15.98-44.66Z"/>
    <path class="st2" d="M456.2,431.92c2.03,2.09,3.3,5.58,5.97,7.51-78.49,87.15-225.9,38.16-215.28-86.86,7.75-91.31,114.26-138.69,191.88-96,7.38,4.06,34.52,23.45,32.31,32.23-1.09,4.33-33.83,27.65-38.67,33.79-19.03-23.18-45.49-33.54-75.18-26.23-73.93,18.19-69.92,145.37,24.03,132.64,18.11-2.45,30.26-13.73,43.6-24.61,2.51.22,27.56,23.62,31.36,27.53Z"/>
    <path class="st0" d="M134.63,348.01l80.31,1.57,12.9-23.33,4.56,1.08c.03,5.08-.13,10.18-.03,15.24.19,9.32-.87,19.95,0,28.96l-1.52,1.12c-.34,1.28,1.47,2.12,1.52,2.5,1.3,9.66,3.57,17.73,5.42,27.14l-217.86-11.11c-5.33-1.69-4.72-13.49,3.5-12.22l108.22-2.25c4.76-1.56,3.13-23.02,2.97-28.71Z"/>
    <path class="st1" d="M134.63,348.01c-.12-4.21.1-8.47,0-12.68l-109.23-3.9-4.53-6.37c-.21-2.13,1.58-4.26,3.35-5.09,1.88-.88,21.92-2.48,26.24-2.71,30.27-1.65,62.01-1.26,92.23-1.9,32.31-.69,64.65-.36,96.93-1.73l-7.25,28.96c-.1-5.06.06-10.17.03-15.24l-4.56-1.08-12.9,23.33-80.31-1.57Z"/>
    <path class="st1" d="M232.38,375.17c-.05-.38-1.86-1.22-1.52-2.5l1.52-1.12c.03.35,1.86,1.23,1.54,2.5l-1.54,1.12Z"/>
  </g>
</svg>